# xmcd CD database file
#
# Track frame offsets:
#	150
#	21390
#	32425
#	46465
#	62162
#	81160
#	91427
#	101625
#	111365
#	122667
#	137260
#	155119
#	164557
#	175562
#	186104
#	205369
#	215339
#	228644
#	247287
#	260491
#	272101
#	284194
#	299726
#	311526
#	322559
#	331639
#
# Disc length: 4597 seconds
#
# Revision: 20
# Processed by: cddbd v1.5.2PL0 Copyright (c) Steve Scherf et al.
# Submitted via: CDex 1.51
#
DISCID=8a11f31a
DTITLE=Louis Prima - Capitol Collectors Series
DYEAR=1956
DGENRE=Jazz
TTITLE0=Just A Gigolo - I Ain't got Nobody  (Medley)
TTITLE1=Oh Marie
TTITLE2=Buona Sera
TTITLE3=Jump, Jive, An' Wail
TTITLE4=Basin Street Blues - When It's Sleepy Time Down South  (Medley)
TTITLE5=The Lip  (With Keey Smith)
TTITLE6=Whistle Stop
TTITLE7=5 Months, 2 Weeks, 2 Days
TTITLE8=Banana Split For My Baby
TTITLE9=There'll Be No Next Time  (With Sam Butera)
TTITLE10=When You're Smiling - The Sheik Of Araby  (Medley)
TTITLE11=Baby, Won't You Please Come Hiome  (With Keey Smith)
TTITLE12=I've Got the World On A String
TTITLE13=Pennies From Heaven
TTITLE14=Angelina - Zooma Zooma  (Medley
TTITLE15=Beep! Beep!
TTITLE16=Embraceable You - I Got It Bad And That Ain't Good  (Medley)  )With Keely Smith)
TTITLE17=Sing, Sing, Sing
TTITLE18=That Old Black Magic  (With Keely Smith)
TTITLE19=The Music Goes 'Round And Around
TTITLE20=Heym Boy! Hey, Girl!  (With Keely Smith)
TTITLE21=Lazy River
TTITLE22=I've Got You Under My Skin
TTITLE23=You're Just In Love
TTITLE24=Twist All Night
TTITLE25=St. Louis Blues
EXTD=LABEL =Capitol Records, Inc.\nID =CDP7940722\nUPC =07777-94072-24\nCOPYRIGHT =1991\n*****\n YEAR: 1956
EXTT0=
EXTT1=Contrary to what you might think, this one swings like a mo' fo'!
EXTT2=
EXTT3=This is the version of the song which is featured in the Gap Swings commercial,\nThe original!
EXTT4=
EXTT5=
EXTT6=
EXTT7=
EXTT8=
EXTT9=
EXTT10=
EXTT11=
EXTT12=
EXTT13=
EXTT14=
EXTT15=
EXTT16=
EXTT17=
EXTT18=
EXTT19=
EXTT20=
EXTT21=
EXTT22=
EXTT23=
EXTT24=
EXTT25=
PLAYORDER=
